<svg width="5000" height="5000" viewBox="0 0 5000 5000" fill="none" xmlns="http://www.w3.org/2000/svg">
<path d="M2476.59 1256.43C2518.04 1286.96 2502.26 1352.58 2451.52 1360.73L806.974 1625C771.271 1630.74 739.215 1602.54 739.993 1566.36L740.017 1565.5L766.932 811.807C768.001 781.866 791.536 757.644 821.297 755.855L1702.58 702.871C1716.04 702.061 1729.37 706.003 1740.24 714.015L2476.59 1256.43Z" fill="#D189B2" stroke="#B45189" stroke-width="80"/>
<path d="M1625.41 1640.99C1676.7 1632.66 1712.23 1690.79 1681.42 1732.63L675.45 3098.76C653.569 3128.48 609.868 3130.47 585.37 3102.88L88.5652 2543.21C68.8402 2520.99 69.0979 2487.46 89.1619 2465.54L693.932 1804.97C702.741 1795.35 714.535 1788.98 727.41 1786.89L1625.41 1640.99Z" fill="#A58EBF" stroke="#956FBF" stroke-width="80"/>
<path d="M1288.96 2499.14C1319.42 2456.81 1385.66 2473.19 1393.1 2524.89L1635.87 4212.25C1641.1 4248.58 1611.93 4280.62 1575.46 4278.62L837.435 4238.17C807.879 4236.55 784.306 4212.77 782.803 4183.07L737.472 3287.19C736.802 3273.96 740.649 3260.9 748.375 3250.16L1288.96 2499.14Z" fill="#79AEDA" stroke="#1E7AC9" stroke-width="80"/>
<path d="M1649.88 3398.74C1641.58 3347.44 1699.74 3311.94 1741.57 3342.79L3090.66 4338.01C3120.38 4359.93 3122.31 4403.69 3094.64 4428.14L2546.58 4912.45C2524.58 4931.89 2491.52 4931.83 2469.6 4912.3L1813.5 4327.89C1803.55 4319.02 1796.95 4307 1794.82 4293.85L1649.88 3398.74Z" fill="#6CBEB1" stroke="#137D6B" stroke-width="80"/>
<path d="M2537.94 3749.41C2496.83 3718.81 2512.57 3653.58 2563.06 3645.31L4215.3 3374.53C4251.97 3368.52 4284.7 3398.3 4282.36 3435.57L4235.38 4184.13C4233.54 4213.44 4210.24 4236.77 4181.06 4238.51L3289.1 4291.69C3275.97 4292.47 3262.98 4288.73 3252.26 4281.11L3251.23 4280.37L2537.94 3749.41Z" fill="#BAD553" stroke="#A4C91E" stroke-width="80"/>
<path d="M3374.86 3366.53C3323.54 3374.75 3288.15 3316.52 3319.08 3274.75L4324.43 1916.86C4346.35 1887.26 4389.96 1885.32 4414.42 1912.87L4911.82 2473.08C4931.45 2495.19 4931.31 2528.52 4911.49 2550.46L4323.24 3201.74C4314.37 3211.56 4302.42 3218.05 4289.36 3220.14L3374.86 3366.53Z" fill="#F4E224" stroke="#C9BB1E" stroke-width="80"/>
<path d="M3730.95 2500.04C3700.52 2542.31 3634.36 2526.03 3626.82 2474.4L3381.42 793.985C3376.14 757.834 3404.96 725.807 3441.28 727.46L3441.29 727.461L4182.41 761.2C4212.18 762.556 4236.06 786.418 4237.57 816.329L4282.86 1711.39C4283.53 1724.62 4279.68 1737.68 4271.96 1748.41L3730.95 2500.04Z" fill="#F8AB33" stroke="#CF8D29" stroke-width="80"/>
<path d="M3364.1 1603.15C3373.2 1659.73 3309.07 1698.84 3262.94 1664.83L1929.97 682.195C1897.44 658.213 1895 610.451 1924.93 583.288L2465.3 92.8494C2489.64 70.7581 2526.76 70.6979 2551.17 92.7098L3201.1 678.736C3211.94 688.51 3219.11 701.695 3221.43 716.104L3364.1 1603.15Z" fill="#F17A5D" stroke="#9C3434" stroke-width="80"/>
</svg>
